# xmcd
#
# Track frame offsets:
#	150
#	21387
#	42471
#	63708
#
# Disc length: 1127 seconds
#
# Revision: 3
# Processed by: cddbd v1.5.1PL0 Copyright (c) Steve Scherf et al.
# Submitted via: dBpowerAMP V4.0
#
DISCID=37046504
DTITLE=SMAP - sekai ni hitotsu dake no hana (Single Version)
DYEAR=2003
DGENRE=JPop
TTITLE0=sekai ni hitotsu dake no hana (Single Version)
TTITLE1=boku wa kimi o tsurete yuku
TTITLE2=sekai ni hitotsu dake no hana (Single Version) [Music Track]
TTITLE3=boku wa kimi o tsurete yuku [Music Track]
EXTD=
EXTT0=
EXTT1=
EXTT2=
EXTT3=
PLAYORDER=
